<?xml version="1.0" encoding="UTF-8"?> <svg xmlns="http://www.w3.org/2000/svg" version="1.1" x="0" y="0" viewBox="0 0 232.4 188.5" style="enable-background:new 0 0 232.4 188.5" xml:space="preserve"> <style> .w{fill:#FFFFFF;} </style> <path class="w" d="M95.7 187.9c-1 0-2-.3-2.8-.8l-2-1.2-1.8-1.1c-2-1.1-3-2.9-3-5.2l.1-11.6.1-11.9-39.7-25.7-2.1-1.4v13c0 2.5-1.4 4.3-3.8 4.9l-2.7.7-2.3.6-1.3.2c-1 0-2-.3-2.8-.7l-2.1-1.3-1.9-1.2a5.6 5.6 0 01-2.8-5v-9.7-9.6-9.7-12.4a5 5 0 014.2-5.2l2.4-.6 2.1-.6 1.3-.2h.2l-.5-2.9-23.4-15.5L4 68.9a6.7 6.7 0 01-3.1-7.6 5.3 5.3 0 012.9-3.4l62.3-26.7L131 3.3l1.4-.6 2.9-1.3c.9-.4 1.7-.6 2.6-.6a6 6 0 013.3 1.1l25.3 16.9 4.3 2.9 6.8 4.5a5.5 5.5 0 012.6 5.1v.7c0 3-1.4 4.2-3.6 5.1l-3.6 1.5-6.7 2.9.2 1 1.2 6.7 20.9 13.2 5.8-2.5c.8-.3 1.6-.5 2.4-.5 1.1 0 2.2.3 3.2 1l22.4 15.1 6.2 4.1a6.7 6.7 0 012.9 7.8 4.7 4.7 0 01-2.9 3.1l-2.9 1.2v36.2c0 2.5-1.5 4.3-3.9 4.9l-2.3.6-2.6.7-1.3.2c-1 0-2.1-.3-2.9-.8l-2.2-1.3-1.8-1.1c-1-.6-2.8-2-2.7-4.8v-14l-14.6 6.6-28.1 12.6-25.4 11.5-17.6 7.9-14.8 6.6V181c0 2.7-1.5 4.7-4.2 5.3l-2.3.6-2.4.6c-.1.4-.5.4-.9.4zm10.1-40.2l16.6-7.4 67-30.2 7.1-3.2 11-5v-2.2l-101.7 43.6v4.4zM42.5 117l35 22.7 8.6 5.6V143l-7.6-5.1-14.9-10c-1.3-.9-4.4-2.9-3.8-7.4l.2-1.1-17.5-11.1v8.7zm32.4 5.4L95.1 136l44.7-19.2 78.1-33.5-21.4-14.4-25.3 10.8L97 111.5l-20.9 8.9-2.5 1.1 1.3.9zM65 110l5.1 3.2a6977 6977 0 0040.3-17.3l50.7-21.8-6.9-4.3-41.4 18.6L82.7 102 65 110zM16.2 64l27.3 18.2 41.9-18 25.6-11 38.3-16.5 17-7.3-2.7-1.8a5866 5866 0 01-26-17.4l-36 15.5-86.7 37.2 1.3 1.1z"></path> <path class="w" d="M43.2 90.5c-1.1 0-2.2-.3-3.2-1L11.8 70.7l-7-4.7-.6-.5-.2-.1a4 4 0 01-1.5-3.7 4.2 4.2 0 012.4-3.2L8 57.2l5.9-2.6 84.4-36.2 36.8-15.8c.9-.4 1.7-.6 2.6-.6 1.2 0 2.4.4 3.6 1.2L168 21l8.4 5.6.7.6.1.1c1 .9 1.6 2.3 1.3 3.6a4 4 0 01-2.4 3.1l-23.7 10.2L114 60.7l-25.6 11L45.6 90c-.8.3-1.6.5-2.4.5zM94.8 144.3c-1.1 0-2.2-.4-3.3-1.1L70.4 129l-6.7-4.5-.7-.5-.2-.2a4.3 4.3 0 01-1.5-3.7 3.9 3.9 0 012.4-3.1l9.2-3.9 20.9-8.9L168 72.4 194.7 61c.6-.3 1.3-.4 2.1-.4 1 0 2 .3 2.8.8l26.6 17.8 2.1 1.4 1.1 1c.8 1 1 2.2.7 3.4a3.9 3.9 0 01-2.3 2.7l-1 .4-2.1.9-81.8 35.1-45.7 19.6c-.8.4-1.6.6-2.4.6z"></path> <path class="w" d="M69.9 121.6a6 6 0 01-2.7-.7l-10.4-6.5-2.1-1.3-.7-.5a4 4 0 01-1.4-3.6 4 4 0 012.3-3.1l24.5-11.1 30.1-13.6L152.3 62a5 5 0 012.1-.4c.9 0 1.8.2 2.6.7l13.2 8.3 1.3.8c.8.5 1.1 1.1 1.3 1.3.7 1 1 2.2.6 3.4s-1.2 2.1-2.3 2.6l-57.6 24.7L72 121.2c-.6.2-1.4.4-2.1.4zM101.8 157.9c-.8 0-1.5-.2-2.2-.6a4 4 0 01-1.8-3.4v-13.2c0-1.6 1-3 2.4-3.7l109.7-47c.5-.2 1-.3 1.6-.3.8 0 1.5.2 2.2.7a4 4 0 011.8 3.3v10.4c0 2.1-1.5 3.7-3 4.3l-12.8 5.7-7.1 3.2-67 30.2-22.2 10c-.5.3-1.1.4-1.6.4zM49.1 107.8c-.7 0-1.4-.2-2-.5-1-.6-1.8-1.6-2-2.8l-.3-1.8-.7-3.8c-.3-1.4-.6-4.8 3.4-6.5l41.2-18.6 58.6-26.4 3.1-1.4 1.5-.7c.5-.2 1.1-.4 1.7-.4.8 0 1.5.2 2.2.6a4 4 0 011.8 3.4V56.5c0 2.2-1.6 3.7-3 4.3l-20 9-66.3 29.8-17 7.6-.6.2-.2.1c-.4.2-.9.3-1.4.3z"></path> <path class="w" d="M90.1 156.6c-.8 0-1.5-.2-2.2-.6l-5.5-3.6-9.2-6L37.1 123a5.2 5.2 0 01-2.6-4.5v-16.8-.8a4 4 0 014-3.7 4 4 0 012.1.6L69 115.7c1.3.8 2 2.2 1.8 3.7a3.8 3.8 0 01-1.4 2.7l13.6 9.1 8.5 5.7a5.5 5.5 0 012.6 5V152.9a4 4 0 01-2.2 3.2 3 3 0 01-1.8.5z"></path> <path class="w" d="M55.6 112.7c-1 0-2-.3-3-1l-1.7-1.1-.9-.6c-1.2-.8-2-2.2-1.8-3.7s1-2.8 2.3-3.4l96.7-43.5c.4-.2.7-.3 1.1-.3l.9-.5 2.6-1.2c.5-.2 1.1-.4 1.7-.4.8 0 1.5.2 2.2.6a4 4 0 011.8 3.4v3.5a4.7 4.7 0 01-3 4l-14.6 6.6L129 80l-23.8 10.7-25.6 11.5-15 6.8-2.2 1-4.6 2.1a4 4 0 01-2.2.6zM96 186.9a4 4 0 01-4-4V173v-13.4-6.1-9.4a5 5 0 013.4-4.9l2.6-1.1 1.2-.5c.5-.2 1-.3 1.6-.3.8 0 1.5.2 2.2.7a4 4 0 011.8 3.3v39.4a5 5 0 01-4.2 5.2 74.5 74.5 0 01-3.5 1H96zM216.1 133.5c-.8 0-1.7-.3-2.3-.8a4 4 0 01-1.7-3.1v-.3-7-18.5l.1-11.7c0-1.4.7-3.4 2.6-4.3l3.4-1.5 1.1-.5c.5-.2 1-.3 1.6-.3.8 0 1.5.2 2.2.7a4 4 0 011.8 3.3v37.8c0 2.4-1.5 4.2-3.8 4.8l-2.7.7-1.2.3c-.4.3-.8.4-1.1.4zM33.6 147a4 4 0 01-2.1-.6l-.9-.6-2.7-1.7c-1.3-.9-2-2.4-2-4.3V99a4 4 0 012.1-3.5 4 4 0 014 .1l1 .6 2.9 1.9c.7.5 2 1.7 2 4.1v33.5l-.1 4.7v2.9a4 4 0 01-2.2 3.3c-.8.2-1.4.4-2 .4z"></path> <path class="w" d="M34.7 147.3a4 4 0 01-4-4v-41.7a4 4 0 013-3.9l2.8-.7 1-.1a4 4 0 014 4v16.8c1 .8 1.9 2.2 1.9 4.5v19a5 5 0 01-4 5.1 42 42 0 01-3.6 1h-1.1zM43.7 92.6c-.6 0-1.1-.1-1.7-.4-1-.5-1.8-1.3-2.1-2.4-.9-2.7.3-5.2 2.9-6.4l60.6-26 32.4-13.9 18.2-7.8 17-7.3 2.1-.9.5-.2.2-.1a3.9 3.9 0 015.1 2.2 5 5 0 01-2.8 6.7l-25.6 11-76.7 33L48.4 91l-2.2.9-1 .4a4 4 0 01-1.5.3zM95.2 146.5a4 4 0 01-3.7-2.5c-.2-.5-1.7-4.7 3-6.7l38.8-16.6 87.3-37.5 3-1.3 1.5-.6a4.1 4.1 0 013.3.1c1 .5 1.8 1.4 2.2 2.4.8 2.7-.3 5.2-2.9 6.3a5089 5089 0 00-34.4 14.8l-18.2 7.8-59 25.3-12 5.1-6.8 2.9-.7.3h-.1l-1.3.2z"></path> <path class="w" d="M94.9 186.6a4 4 0 01-2.1-.6l-1-.6-2.7-1.7a5 5 0 01-2.1-4.1v-37.9a4 4 0 012.1-3.5c.6-.3 1.3-.5 1.9-.5.8 0 1.5.2 2.2.6l3.8 2.5a4 4 0 011.8 3.4v38.5a4 4 0 01-2.1 3.5c-.4.2-1.1.4-1.8.4zM51.3 109.9c-1.6 0-2.7-.8-3.3-1.2l-.2-.1a4.1 4.1 0 01-1.8-3.7c.1-1.5 1-2.7 2.3-3.3l106.9-48.1c.5-.2 1.1-.4 1.6-.4.6 0 1.2.1 1.7.4a4 4 0 012.1 2.6l.3 1.2a4 4 0 01-2.2 4.6l-4.3 1.9-9 4-50.2 22.9-41.6 18.7a6 6 0 01-2.3.5zM215 133.2a4 4 0 01-2.1-.6l-1-.6-2.8-1.7c-1.3-.8-2-2.4-2.1-4.1v-19.8c0-1.2.5-2.4 1.4-3.3v-2.5-6.1c0-2.7 1.4-4.8 3.9-5.5l.6-.2.6-.2a4 4 0 011.5-.3c.8 0 1.6.2 2.2.7a4 4 0 011.8 3.3v37c0 1.4-.8 2.8-2 3.5-.7.3-1.3.4-2 .4zM174.5 76.8c-.8 0-1.5-.2-2.2-.7a4 4 0 01-1.8-3.3v-1.5-2.6l-3.3-2.2h-.3a5 5 0 01-5-4.2l-.8-4.7-.3-2a4 4 0 011.7-4 4 4 0 014.3-.1l20.6 13.1c1.3.8 2 2.2 1.8 3.7s-1 2.8-2.4 3.4L176 76.3c-.4.4-1 .5-1.5.5zM47.8 99.5c-.5 0-1-.1-1.4-.3-1-.4-1.8-1.1-2.2-2.1l-.2-.3a4 4 0 012-5.3l54.5-24.6L151 44.2c.5-.2 1.1-.4 1.6-.4s1 .1 1.4.3c1 .4 1.8 1.1 2.2 2.1l.2.4c.4 1 .5 2.1.1 3.1s-1.1 1.8-2.1 2.2L49.5 99.1c-.5.3-1.1.4-1.7.4zM42.4 92.4c-.8 0-1.5-.2-2.2-.7L37.6 90l-8.7-5.8L4.3 67.8c-3.5-2.3-2.6-5.4-2.2-6.3A4 4 0 015.8 59c.6 0 1.1.1 1.7.4l1 .5.5.4 35.2 23.5c1.1.7 1.6 1.6 1.8 2.1l.1.1c1.1 1.7.8 3.9-.8 5.2l-.3.3a4 4 0 01-2.6.9z"></path> <path class="w" d="M94 146.2a6.9 6.9 0 01-2.7-.9l-28.1-19c-1-.7-1.5-1.6-1.8-2.1l-.1-.1a4 4 0 01.8-5.3l.3-.2a4 4 0 012.6-.9c.8 0 1.5.2 2.2.7l1.3.9 2.9 1.9.2.2 24.2 16.3c1 .7 1.5 1.5 1.8 2l.1.1c1.2 1.7.9 3.9-.6 5.2l-.2.2c-1 .7-1.9 1-2.9 1zM164.1 69.2c-2 0-3.6-1.4-3.9-3.3l-.5-3-1.1-6.5-2.2-12.9-.1-.7c-.1-.6-.3-1.4-.3-2.2-.1-1.8.9-3 1.3-3.5l-.1.1c.6-.9 1.7-1.5 2.8-1.7h.5c1 0 1.9.3 2.6 1l.3.2c.7.6 1.2 1.4 1.3 2.4l4.3 25.6c.2 1.2-.1 2.3-.9 3.2-.8.9-1.9 1.4-3.1 1.4h-.9z"></path> <path class="w" d="M68.4 122.5H68c-.5 0-1.6 0-2.6-.7l-26.6-16.9-1.4-.9-.8-.7-.2-.2a4 4 0 012.9-6.9l.7.1h.3c.5 0 1.5.1 2.5.8l26.1 16.5 1.6 1c.4.2.6.4.7.6 1.1.9 1.7 2.5 1.4 3.9v.2a4.6 4.6 0 01-4.2 3.2zM170.9 78.2a6 6 0 01-3.3-1l-9.7-6.1-5.3-3.3c-1.1-.7-1.6-1.8-1.8-2.2l.1.1c-1-1.8-.6-4 1-5.3l.3-.2a4 4 0 012.4-.8c.8 0 1.5.2 2.2.6l1.1.7 2.3 1.5 1-.1c.9 0 1.8.3 2.6.9.7.6 1.2 1.4 1.4 2.2l1.9 1.3h.4a5 5 0 012.6.8l3.4 2.3 1.1.7c1.1.8 1.8 2 1.8 3.4s-.7 2.6-1.9 3.3c-.6.5-1.9 1.2-3.6 1.2zM187 71.6l-.8-.1c-.5-.1-1.4-.2-2.3-.8l-15.1-9.6-3.3-2.1-.7-.5-1.9-1.3c-.8-.5-1.2-1.1-1.5-1.5l-.1-.1a4 4 0 01.6-5.7l.2-.2a4 4 0 014.6-.3L189.2 64c1.5 1 2.2 2.9 1.7 4.6l-.1.3a4 4 0 01-3.8 2.7z"></path> <path class="w" d="M172.8 76.7a3 3 0 01-1.6-.4c-.6-.3-1.1-.7-1.5-1.2l-1.2-.5-1-.6a4.1 4.1 0 01-1.7-2.4c-.6-.4-1-1-1.3-1.7a4 4 0 01-.3-1.6v-2c0-1.3.6-2.5 1.6-3.2.4-.3.9-.6 1.5-.7l.9-.6c.5-.3 1.1-.4 1.7-.4.7 0 1.4.2 2.1.6l.2.1.6.4.6.4.2.1.8.7a4 4 0 012.6 3.8v5.2a4 4 0 01-2.5 3.7l-.2.1-1.5.2zM160.2 62.2c-4.1 0-4.8-3.6-5-4.8l-.7-3.8-.2-1.3-.1-1.1v-.1a4 4 0 012.1-3.5 4 4 0 014 .1l.6.4c.8.4 1.7 1 2.6 1.9a6.2 6.2 0 011.5 3.7v.3l.4 2.6.1 1c.2 1.1-.1 2.3-.9 3.1-.7.9-1.8 1.4-2.9 1.5h-1.5zM34.4 104.5c-1.2 0-2.1-.5-2.7-.8l-2.4-1.5-.9-.6c-1.3-.8-2.1-2.4-1.8-4s1.4-2.8 2.9-3.3l1.1-.3 3.2-.8 1.1-.1c1.2 0 2.1.4 2.7.8l2.4 1.5.9.6c1.3.9 2.1 2.4 1.8 4s-1.4 2.8-2.9 3.3l-1.1.3-3.3.8-1 .1z"></path> <path class="w" d="M47.7 107.7a5 5 0 01-1.2-.2c-3-.9-3.7-3.2-3.9-4.5L41 93.4l-.6-3.3c-.3-1.8.6-3.6 2.3-4.3l.9-.4a4.1 4.1 0 013.5.2 4 4 0 012.1 2.9l2.4 14.7c.2 1.4-.3 2.8-1.3 3.7-.7.5-1.6.8-2.6.8z"></path> <path class="w" d="M42.5 104.4h-.6a5.2 5.2 0 01-4.6-4.6l-1.4-8.3-.5-2.9a4 4 0 011.8-4l.3-.2a4 4 0 012.1-.6l1 .1a4 4 0 012.5 1.9l.1.2c.4.5 1 1.4 1.2 2.6l1.4 8.5.5 2.7c.2 1.3-.2 2.5-1.1 3.4-.6.7-1.6 1.2-2.7 1.2zM157.2 57.6h-.4l-.9-.1a4.1 4.1 0 01-3.7-3.3L150.4 43c-.3-1.7.6-3.5 2.2-4.2l.9-.4a4 4 0 011.8-.4 4 4 0 011.8.4 4 4 0 012.1 2.9l2 11.8c.2 1.2-.2 2.5-1 3.4-.8.7-1.9 1.1-3 1.1z"></path> <path class="w" d="M154.2 51.1a4 4 0 01-2.1-.6l-3.6-2.2a3.8 3.8 0 01-1.8-4 4 4 0 012.9-3.3l3.1-.8 1-.1c.8 0 1.5.2 2.2.6.9.6 1.6 1.6 1.8 2.7l.5 3.1a4 4 0 01-1.7 4 5 5 0 01-2.3.6zM45.5 106.3l-1-.1c-4.2-1-4.6-4.7-4.7-5.8v-.3a4 4 0 012.1-5.1l1.2-.6c.5-.2 1.1-.4 1.7-.4.6 0 1.3.2 1.9.5a4 4 0 012.1 2.9l.7 4.3a4 4 0 01-1.2 3.6c-.8.6-1.8 1-2.8 1zM163.5 71.7a5 5 0 01-1.2-.2c-2.9-.9-4.2-2.7-4.2-5.7v-4.2a4 4 0 013.5-4h.8a4 4 0 013.9 3.3l1.1 6.1c.3 1.4-.2 2.8-1.3 3.7a4 4 0 01-2.6 1z"></path> <path class="w" d="M160.2 69.5c-.6 0-1.3-.1-1.8-.4a4.2 4.2 0 01-2.2-3.6v-1.2-4.2c0-1.5.8-2.4 1.1-2.8a4 4 0 013.3-1.8l.8.1c1.6.3 2.9 1.6 3.1 3.2.1.8 1.3 7.6-2.1 10-.6.5-1.4.7-2.2.7z"></path> <path class="w" d="M156.8 67.6c-.7 0-1.4-.2-2-.5-3.6-2-3.8-4.2-3.1-7.7a4 4 0 013.5-3.1h.4c1.6 0 3 .9 3.6 2.4l1.4 3.2a4 4 0 01-1.8 5.2l-.3.1c-.4.2-1 .4-1.7.4zM149.8 52c-.8 0-1.5-.2-2.2-.7a4 4 0 01-1.8-3.3v-2.4a4 4 0 012.1-3.5 4 4 0 014 .1l2.3 1.4a4 4 0 011.9 3.7 4 4 0 01-2.4 3.4l-2.3 1c-.5.2-1.1.3-1.6.3z"></path> <path class="w" d="M160.6 55.3c-.9 0-1.8-.3-2.5-.9l-.3-.2c-1-.5-3-1.5-3.7-4.2a4 4 0 011.7-4.4c.7-.4 1.4-.7 2.2-.7a4 4 0 012.4.8l.3.2c.9.5 3.2 1.5 3.8 4.3.4 1.7-.3 3.4-1.8 4.3-.6.6-1.3.8-2.1.8z"></path> <path class="w" d="M159.5 52.7a4 4 0 01-2.1-.6l-2-1.3c-1.3-.8-2-2.4-1.8-4a4.1 4.1 0 012.9-3.3l2-.5 1.1-.1a4 4 0 014 4v1.8a4 4 0 01-2.1 3.5c-.7.4-1.3.5-2 .5z"></path> <path class="w" d="M155 57.8c-1.2 0-2.3-.5-3.1-1.4a4.6 4.6 0 01-1.4-3v-3.3c0-1.2.5-2.3 1.4-3 .7-.6 1.7-1 2.6-1h.6c1.7.2 3.2 1.6 3.5 3.3l.6 3.6a4 4 0 01-1.7 4l-.3.2a4 4 0 01-2.2.6z"></path> <path class="w" d="M157.4 50.4c-.8 0-1.5-.2-2.2-.6a4.2 4.2 0 01-1.8-2.7l-.2-1.4a4 4 0 011.7-4 4 4 0 014.3-.1l1.6 1c1.4.9 2.1 2.4 1.8 4a4 4 0 01-3 3.3l-1.4.4-.8.1zM167.1 73.5a4.1 4.1 0 01-4.1-4v-5.4c0-2.2 1.8-4 4-4s4.1 1.8 4.1 4v5.4a4 4 0 01-4 4zM150.3 59.1a5.4 5.4 0 01-5.4-5.2c0-1.4.5-2.8 1.5-3.9a5.8 5.8 0 018-.2c1 1 1.5 2.3 1.5 3.8 0 2.9-2.5 5.4-5.4 5.4l-.2.1z"></path> <g> <path d="M210.1 106.3l-7 3.1-41.4 18.6-43 19.4-16.2 7.3c-.7.3-.9.7-.9 1.4v25.2c0 .9-.3 1.2-1.1 1.4l-4.7 1.3c-.3.1-.8 0-1.1-.2l-3.9-2.4c-.7-.4-1-.9-1-1.7l.1-24.5c0-.9-.3-1.4-1-1.9l-48.1-31.2-.6-.4-.1.9v19.5c0 .6-.1.8-.7.9l-5.1 1.4c-.3.1-.7 0-1-.2l-4-2.5c-.6-.4-.9-.8-.9-1.5v-19.3l.1-22.1c0-.8.1-1.1 1-1.3 1.6-.3 3.1-.9 4.7-1.3.4-.1.9 0 1.2.2.8.4 1.6.8 2.2 1.4.7.6 1.3.3 1.8-.1.2-.2.2-.8.1-1.3l-1.4-8.3a2 2 0 00-1.1-1.7c-10-7-20.4-13.9-30.8-20.8-1.4-.9-1.8-1.8-1.4-3.4l.6-.6 62.3-26.8L132.5 7l4.5-1.9c.8-.4 1.3-.3 2 .2l28.1 18.8 8.4 5.5c.6.4.8.8.8 1.5-.1 2 .3 1.6-1.6 2.5l-11.9 5.1c-.6.2-.7.6-.6 1.1l1.9 11.3c.1.3.4.7.7.9l23.1 14.6c.3.2.8.2 1.1 0l7.2-3.1c.6-.3 1.1-.2 1.7.2l27.8 18.7.8.5c1.2.8 1.7 1.9 1.3 3.4l-.6.6-4.3 1.8c-.7.3-.9.6-.9 1.4V113l-.1 15c0 .6-.2.9-.8 1l-4.9 1.3a2 2 0 01-1.3-.2l-3.9-2.4c-.6-.3-.7-.7-.7-1.4v-19.1c-.2-.1-.2-.5-.2-.9zm-35.5-76.1l-.4-.3-35-23.4c-.8-.5-1.5-.7-2.4-.3L91.9 25.5 15.5 58.3l-9 3.9.5.4 35.3 23.5c.6.4 1.1.4 1.8.1l68.5-29.4 52.7-22.6 9.3-4zM65.4 120.7l.6.5 27.8 18.7c.7.5 1.1.5 1.9.2l45.7-19.6 81.8-35.1 3-1.3-.1-.2-28.6-19.2a1 1 0 00-1.1 0l-26.7 11.4-74.1 31.8-30.2 12.8zm-8.8-11.3l.3.2 12.4 7.8c.3.2.8.2 1.2 0L112 99.6l50.9-21.9 6.7-2.9-.2-.2-14.5-9.1h-.9l-42.8 19.2-44.1 19.9c-3.4 1.7-6.9 3.2-10.5 4.8zm154.9-15.7l-109.7 47v13.2l22.2-10 67-30.2 19.8-8.9c.3-.1.6-.5.6-.7l.1-10.4zM153.6 49l-4.6 2.1-45.8 20.6-53.9 24.2c-1 .4-1.4.8-1.1 2l1 5.9.6-.2 17-7.6 61.8-27.8 24.4-11c.3-.1.7-.5.7-.7l-.1-7.5zm-86.8 70.1l-28.3-17.9v17.3c0 .6.3.9.7 1.2l45.3 29.4 5.5 3.6v-.6V142c0-.8-.3-1.2-.9-1.6l-23.5-15.7c-1.3-.9-2.3-1.7-2.1-3.5.1-.6.2-.9.7-1.1l2.6-1zm82-74.4h-.3l-43.9 18.9-42 18-15.4 6.6c-.3.1-.6.5-.6.6l.9 5.3 8.8-4 72.1-32.4 19.8-8.9c.3-.1.6-.5.6-.8v-3.3zm-96.6 62l2.7 1.7c.4.3.8.3 1.3.1l6.9-3.1 40.6-18.3 29.5-13.2L153 65c.3-.1.6-.4.6-.7.1-1 0-2 0-3.2l-2.6 1.2c1 .4 1.1 1.1.8 1.8-.3.7-.9 1-1.7.9-1.1-.1-1.2-.9-1.2-1.8l-96.7 43.5zm48.6 34.5l-4 1.7c-.6.2-.8.6-.8 1.2v38.8l3.8-1.1c.8-.2 1-.4 1-1.2v-25.8-13.6zm120.1-51.5l-4.4 1.9c-.2.1-.3.5-.3.8l-.1 11.6v25.5l4-1.1c.6-.1.7-.4.7-.9l.1-14.6V94.6v-4.9zM33.6 143l.1-.8.1-6.5v-33.5c0-.3 0-.7-.2-.8a63 63 0 00-3.8-2.4v40.7c0 .3.1.8.3 1l3.5 2.3zm1.1-41.5v41.7l3.9-1.1c.7-.2.9-.5.9-1.1v-19c0-.8-.2-1.3-.9-1.6-.8-.3-1-.9-1-1.8V102v-1.2l-2.9.7zm9-12.9l3.2-1.4 25.3-10.9 65.3-28 37-15.9c.7-.3 1-.7.7-1.4l-.6.2-19 8.2L105 61.2l-60.6 26c-.7.3-1 .6-.7 1.4zm183-3.7l-4.5 2-69.7 29.9L96.2 141c-.7.3-1.4.5-.9 1.5l.5-.2 18.8-8.1 59-25.3 52.6-22.6c.5-.2.7-.6.5-1.4zM94.9 182.6v-38.5l-3.8-2.5v37.9c0 .3.1.7.3.8l3.5 2.3zm62-125.4L50 105.3c.7.4 1.1.9 1.9.5l42-18.9 50-22.5 13.3-6-.3-1.2zm58.1 35l-1.5.6c-.8.2-1 .7-1 1.6v9.8c0 .6-.2 1.1-.8 1.3-.3.1-.6.6-.6.9v19.8c0 .3.1.6.3.7l3.6 2.3v-37zm-50.3-37.1l1.2 6.6c.1.7.6 1.1 1.4.9a2 2 0 011.5.3 93 93 0 015.2 3.4c.3.2.5.7.5 1v5.5l10.8-4.6-20.6-13.1zm-11.8-6.9l-.2-.4L47.6 95.1l.2.3 105.1-47.2zm-147 15c-.3.8.2 1.1.7 1.4l33.2 22.1 2.6 1.7.3-.2c-.2-.4-.4-.9-.7-1.1L6.3 63.3l-.4-.1zm59 58.5l-.3.2c.3.4.4.9.8 1.1l28.1 19 .5.2.2-.2c-.3-.4-.4-.8-.8-1.1L69 124.4a146 146 0 00-4.1-2.7zm95.8-82l-.3-.2c-.2.3-.6.6-.6.9l.4 2.5a579 579 0 002.2 12.9l1.6 9.5h.9c-1.3-8.6-2.8-17.1-4.2-25.6zm-92.3 78.8v-.2l-.4-.3-27.7-17.5c-.3-.2-.7-.1-1.3-.2l.4.3 28 17.8 1 .1zm86.3-55.1l-.3.2c.2.3.2.6.5.8l15 9.5c1 .7 1.7.4 2.6-.2l-4.5-3c-.2-.1-.5-.2-.6-.1-.8.5-1.4 0-2.1-.4l-2.8-1.9c-.7-.5-1.7-.8-1.2-2.2-1.2.7-2 .4-2.8-.2l-3.8-2.5zm9.8-10.3l-.2.2.8.9 2.5 1.6L186 67.4c.3.2.7.2 1 .2l.1-.3-22.6-14.2zm8.5 14.4c-.3.9-.8 1.1-1.4.8-.6-.3-.8-1.2-.3-2l-.7-.5-.7-.4c-.2 1.2-.4 1.3-1.7.9v2l.1.2c1.4.1 1.7.6 1.5 2.2l1 .6c.4-.4.8-.8 1.1-.8.4 0 .8.4 1 .8.1.2-.1.7-.1 1l.2.4.2-.1c-.2-1.6-.2-3.2-.2-5.1zm-14.7-16.4v.6l.9 5c.3 1.7.4 1.7 2.1 1.5h.6l-.5-3.5c-.1-.7-.2-1.5-.6-2-.7-.7-1.6-1.1-2.5-1.6zM30.5 98.3l3.2 2c.2.1.5.3.7.2l4.3-1.1-3.3-2.1c-.2-.1-.5-.3-.8-.2l-4.1 1.2zm13.9-8.8l2.2 13c.1.7.5 1.1 1.2 1.3l-2.4-14.7-1 .4zm-4.6-1.8l-.3.2 1.8 11.2c.1.7.4 1.1 1.2 1.2a373 373 0 00-1.9-11.2c-.1-.4-.5-.9-.8-1.4zm117.4-34.1l-2-11.8-.9.4 1.9 11.3 1 .1zm2.5-8.2l-.9-5.1-1.2.6c-.6.2-1.3.3-.9 1.2.2.6.2 1.3.6 1.7.6.6 1.4 1 2.4 1.6zM42.1 89.6l1.1 6.4.3.1c.3-.4.8-.7.8-1.1l-.8-5-1.4-.4zm108.5-44.7l3.6 2.2-.5-3.1-3.1.9zM43.5 98.6c.6 1.3-.2 3.2 2 3.7l-.7-4.3-1.3.6zm118.9-37.1h-.3v4.2c0 1.3.2 1.5 1.4 1.9l-1.1-6.1zm-1.8-2l-.4.7v5.4c.6-.5.8-3.8.4-6.1zm-3.8 4.1l.3-.1-1.4-3.2c-.5 2.3-.5 2.4 1.1 3.3zm-7-17.9v2.4l2.3-1-2.3-1.4zM158 49c.4 1.4 1.8 1.5 2.7 2.2-.4-1.3-1.8-1.4-2.7-2.2zm1.5-2.1l-2 .5 2 1.3v-1.8zm-4.8 3.2h-.1v3.1c0 .2.3.4.5.6l.3-.2-.7-3.5zm4.1-4.1l-1.6-1 .2 1.4 1.4-.4zm8.3 18.1h-.1v5.4h.1v-5.4z"></path> <path class="w" d="M174.6 30.2a372 372 0 01-9.3 4l-52.7 22.6L44 86.3c-.7.3-1.2.3-1.8-.1L7 62.6l-.5-.4 9-3.9A25076.5 25076.5 0 00136.8 6.2c.9-.4 1.6-.3 2.4.3a10630.7 10630.7 0 0135.4 23.7zM65.4 120.7l30.1-12.9L169.6 76l26.7-11.4a2 2 0 011.1 0L226 83.8l.1.2-3 1.3-81.8 35.1L95.6 140c-.7.3-1.2.3-1.9-.2a2696 2696 0 00-27.8-18.7l-.5-.4zM56.6 109.4l10.5-4.7 44.1-19.9L154 65.6h.9l14.5 9.1.2.2-6.7 2.9L112 99.7l-41.5 17.8c-.3.1-.9.2-1.2 0l-12.4-7.8-.3-.3zM211.5 93.7v10.4c0 .3-.4.6-.6.7l-19.8 8.9-67 30.2-22.2 10v-13.2l109.6-47zM153.6 49v7.5c0 .2-.4.6-.7.7l-24.4 11L66.6 96l-17 7.6-.6.2-1-5.9c-.3-1.1.1-1.5 1.1-2L103 71.7l45.8-20.6 4.8-2.1zm-3.1 3.3c-.9 0-1.6.7-1.6 1.5 0 .7.7 1.3 1.4 1.3.8 0 1.5-.7 1.5-1.5.1-.9-.4-1.3-1.3-1.3z"></path> <path class="w" d="M66.8 119.1l-2.4 1c-.5.2-.7.5-.7 1.1-.3 1.8.8 2.6 2.1 3.5l23.5 15.7c.6.4.9.8.9 1.6v10.7a263 263 0 01-5.5-3.6l-45.3-29.4c-.4-.3-.7-.5-.7-1.2v-16.8-.5l28.1 17.9zM52.2 106.7l96.7-43.5c0 .9.1 1.7 1.2 1.8.8.1 1.4-.2 1.7-.9.2-.7.2-1.4-.8-1.8l2.6-1.2v3.2c0 .2-.4.6-.6.7l-19.8 8.9-29.5 13.2-40.6 18.3-6.9 3.1c-.5.2-.8.2-1.3-.1l-2.7-1.7zM100.8 141.2v39.4c0 .8-.2 1.1-1 1.2l-3.8 1.1V179v-19.4-15.5c0-.6.2-.9.8-1.2l4-1.7zM220.9 89.7V113l-.1 14.6c0 .5-.1.8-.7.9l-4 1.1v-.9-24.6l.1-11.6c0-.3.1-.7.3-.8 1.4-.8 2.9-1.4 4.4-2zM33.6 143l-3.5-2.2c-.2-.2-.3-.7-.3-1v-18.6-21.1-1l3.8 2.4c.2.1.2.5.2.8v33.5l-.1 6.5-.1.7z"></path> <path class="w" d="M34.7 101.5l2.8-.7v17.8c0 .9.2 1.5 1 1.8.7.3.9.8.9 1.6v19c0 .7-.2 1-.9 1.1l-3.9 1.1.1-41.7zM43.7 88.6c-.3-.8 0-1.2.7-1.4l60.6-26 50.6-21.7 19-8.2.6-.2c.3.8 0 1.1-.7 1.4l-37 15.9-65.3 28-25.3 10.9-3.2 1.3zM226.7 84.9c.2.8 0 1.2-.6 1.4l-52.6 22.6-59 25.3-18.8 8.1-.5.2c-.4-1 .2-1.2.9-1.5l56.3-24.2 69.7-29.9 4.6-2zM94.9 182.6l-3.6-2.2c-.2-.1-.3-.5-.3-.8v-31.3-6.6l3.8 2.5.1 38.4zM156.9 57.2l.3 1.2-13.3 6-50 22.5-42 18.9c-.8.4-1.3 0-1.9-.5l106.9-48.1zM215 92.2v37l-3.6-2.3c-.2-.1-.3-.5-.3-.7v-19.8c0-.3.3-.7.6-.9.6-.3.8-.7.8-1.3v-9.8c0-.9.2-1.4 1-1.6l1.5-.6zM164.7 55.1l20.6 13.1-10.8 4.6v-5.5c0-.4-.2-.8-.5-1a93 93 0 00-5.2-3.4c-.4-.2-1-.4-1.5-.3-.8.2-1.3-.1-1.4-.9-.5-2.1-.8-4.2-1.2-6.6zM152.9 48.2L47.8 95.5l-.2-.3 105.1-47.3.2.3zM5.9 63.2l.4.2A7375 7375 0 0142 87.2c.3.2.5.7.7 1.1l-.3.2-2.6-1.7L6.6 64.6c-.5-.4-1.1-.6-.7-1.4zM64.9 121.7l4.1 2.7 24.4 16.5c.3.2.5.7.8 1.1l-.2.2-.5-.2-28.1-19c-.4-.2-.5-.7-.8-1.1l.3-.2zM160.7 39.7l4.3 25.6h-.9l-1.6-9.5a579 579 0 00-2.2-12.9c-.1-.8-.4-1.7-.4-2.5 0-.3.4-.6.6-.9l.2.2zM68.4 118.5l-.9-.1-28-17.8-.4-.3 1.3.2L68.1 118l.4.3-.1.2zM154.7 63.4l3.8 2.5c.8.6 1.6.9 2.8.2-.5 1.4.5 1.7 1.2 2.2l2.8 1.9c.6.4 1.2.9 2.1.4.1-.1.4 0 .6.1l4.5 3c-.9.6-1.5.9-2.6.2l-15-9.5c-.2-.1-.3-.5-.5-.8l.3-.2zM164.5 53.1l22.6 14.3-.1.3-1-.2-18.4-11.6-2.5-1.6-.8-.9c0-.2.1-.3.2-.3z"></path> <path class="w" d="M173 67.5v5.2l-.2.1a.8.8 0 01-.2-.4c0-.4.2-.8.1-1-.2-.4-.6-.8-1-.8-.3 0-.7.5-1.1.8l-1-.6c.3-1.6-.1-2.1-1.5-2.2l-.1-.2v-2c1.3.4 1.5.3 1.7-.9l.7.4.7.5c-.4.8-.3 1.6.3 2 .8.2 1.3 0 1.6-.9zM158.3 51.1c.9.6 1.8.9 2.4 1.6.4.5.5 1.3.6 2l.5 3.5h-.6c-1.7.2-1.8.2-2.1-1.5l-.9-5 .1-.6zM30.5 98.3l4.2-1.1c.2-.1.6.1.8.2l3.3 2.1-4.3 1.1-.7-.2-3.3-2.1zM44.4 89.5l.9-.4 2.4 14.7c-.7-.2-1.1-.6-1.2-1.3-.6-4.4-1.4-8.7-2.1-13zM39.8 87.7c.3.5.7.9.8 1.5a373 373 0 011.9 11.2c-.8-.1-1.1-.6-1.2-1.2L39.5 88l.3-.3zM157.2 53.6l-1-.1-1.9-11.3.9-.4 2 11.8zM150.6 44.9l3.1-.8.5 3.1-3.6-2.3zM43.5 98.6l1.3-.6.7 4.3c-2.1-.5-1.4-2.4-2-3.7zM162.4 61.5l1.1 6.1c-1.2-.4-1.4-.6-1.4-1.9v-4.2h.3zM160.6 59.5c.4 2.2.2 5.6-.4 6v-5.4l.4-.6zM156.8 63.6c-1.6-.9-1.6-1-1.1-3.3l1.4 3.2-.3.1zM149.8 45.7l2.3 1.4-2.3 1v-2.4zM158 49c.9.7 2.3.8 2.7 2.2-1-.7-2.4-.8-2.7-2.2zM159.5 46.9v1.8l-2-1.3 2-.5zM154.7 50.1l.6 3.6-.3.2c-.2-.2-.5-.4-.5-.6v-3.1l.2-.1zM158.8 46l-1.4.4-.2-1.4 1.6 1zM167.1 64.1v5.4h-.1v-5.4h.1z"></path> <path d="M150.5 52.3c.9 0 1.4.5 1.3 1.3 0 .8-.7 1.5-1.5 1.5-.7 0-1.4-.6-1.4-1.3 0-.8.8-1.5 1.6-1.5z"></path> </g> </svg> 